<svg xmlns="http://www.w3.org/2000/svg" viewBox="0 0 1200 900" width="1200" height="900"><defs><marker id="ah_1e1e1e" markerWidth="12" markerHeight="12" refX="8" refY="3" orient="auto" markerUnits="userSpaceOnUse"><path d="M0,0 L9,3 L0,6 Z" fill="#1e1e1e"/></marker><marker id="ah_4a9eed" markerWidth="12" markerHeight="12" refX="8" refY="3" orient="auto" markerUnits="userSpaceOnUse"><path d="M0,0 L9,3 L0,6 Z" fill="#4a9eed"/></marker><marker id="ah_8b5cf6" markerWidth="12" markerHeight="12" refX="8" refY="3" orient="auto" markerUnits="userSpaceOnUse"><path d="M0,0 L9,3 L0,6 Z" fill="#8b5cf6"/></marker><marker id="ah_ef4444" markerWidth="12" markerHeight="12" refX="8" refY="3" orient="auto" markerUnits="userSpaceOnUse"><path d="M0,0 L9,3 L0,6 Z" fill="#ef4444"/></marker></defs><rect x="0" y="0" width="1200" height="900" fill="#ffffff"/><text font-family="Helvetica, Arial, sans-serif" font-size="24" fill="#1e1e1e" text-anchor="start"><tspan x="330" y="39">GitHub Actions Pipeline — push / PR to main</tspan></text><rect x="440" y="70" width="320" height="80" rx="10" fill="#fff3bf" stroke="#f59e0b" stroke-width="2" opacity="1"/><text font-family="Helvetica, Arial, sans-serif" font-size="16" fill="#1e1e1e" text-anchor="middle"><tspan x="600" y="106">PR / push to main</tspan><tspan x="600" y="126">(paths: src, frontend, pom.xml ...)</tspan></text><rect x="20" y="190" width="560" height="590" rx="10" fill="#dbe4ff" stroke="#4a9eed" stroke-width="1" opacity="0.3"/><text font-family="Helvetica, Arial, sans-serif" font-size="18" fill="#2563eb" text-anchor="start"><tspan x="40" y="218">Workflow: Java CI with Maven (build.yml)</tspan></text><rect x="60" y="250" width="220" height="80" rx="10" fill="#a5d8ff" stroke="#2563eb" stroke-width="2" opacity="1"/><text font-family="Helvetica, Arial, sans-serif" font-size="16" fill="#1e1e1e" text-anchor="middle"><tspan x="170" y="286">build</tspan><tspan x="170" y="306">mvn verify -P frontend</tspan></text><rect x="320" y="250" width="220" height="80" rx="10" fill="#a5d8ff" stroke="#2563eb" stroke-width="2" opacity="1"/><text font-family="Helvetica, Arial, sans-serif" font-size="16" fill="#1e1e1e" text-anchor="middle"><tspan x="430" y="286">frontend-e2e</tspan><tspan x="430" y="306">Playwright</tspan></text><polyline points="170,330 300,400" fill="none" stroke="#1e1e1e" stroke-width="2" marker-end="url(#ah_1e1e1e)"/><polyline points="430,330 300,400" fill="none" stroke="#1e1e1e" stroke-width="2" marker-end="url(#ah_1e1e1e)"/><rect x="170" y="400" width="260" height="80" rx="10" fill="#d0bfff" stroke="#8b5cf6" stroke-width="2" opacity="1"/><text font-family="Helvetica, Arial, sans-serif" font-size="15" fill="#1e1e1e" text-anchor="middle"><tspan x="300" y="436">allure-report</tspan><tspan x="300" y="454.75">needs: build + frontend-e2e</tspan></text><polyline points="300,480 300,540" fill="none" stroke="#1e1e1e" stroke-width="2" marker-end="url(#ah_1e1e1e)"/><rect x="170" y="540" width="260" height="80" rx="10" fill="#b2f2bb" stroke="#15803d" stroke-width="2" opacity="1"/><text font-family="Helvetica, Arial, sans-serif" font-size="15" fill="#1e1e1e" text-anchor="middle"><tspan x="300" y="576">deploy-report</tspan><tspan x="300" y="594.75">needs: allure-report (main only)</tspan></text><polyline points="300,620 300,670" fill="none" stroke="#1e1e1e" stroke-width="2" marker-end="url(#ah_1e1e1e)"/><rect x="210" y="670" width="180" height="70" rx="10" fill="#c3fae8" stroke="#0e7490" stroke-width="2" opacity="1"/><text font-family="Helvetica, Arial, sans-serif" font-size="15" fill="#1e1e1e" text-anchor="middle"><tspan x="300" y="701">GitHub Pages</tspan><tspan x="300" y="719.75">(Allure report)</tspan></text><polyline points="480,150 300,250" fill="none" stroke="#4a9eed" stroke-width="2" marker-end="url(#ah_4a9eed)"/><rect x="620" y="190" width="540" height="210" rx="10" fill="#e5dbff" stroke="#8b5cf6" stroke-width="1" opacity="0.3"/><text font-family="Helvetica, Arial, sans-serif" font-size="16" fill="#6d28d9" text-anchor="start"><tspan x="635" y="218">Workflow: Code Quality (code-quality.yml) — all parallel</tspan></text><rect x="650" y="290" width="150" height="80" rx="10" fill="#ffd8a8" stroke="#b45309" stroke-width="2" opacity="1"/><text font-family="Helvetica, Arial, sans-serif" font-size="16" fill="#1e1e1e" text-anchor="middle"><tspan x="725" y="336">checkstyle</tspan></text><rect x="820" y="290" width="140" height="80" rx="10" fill="#ffd8a8" stroke="#b45309" stroke-width="2" opacity="1"/><text font-family="Helvetica, Arial, sans-serif" font-size="16" fill="#1e1e1e" text-anchor="middle"><tspan x="890" y="336">pmd</tspan></text><rect x="980" y="290" width="160" height="80" rx="10" fill="#ffd8a8" stroke="#b45309" stroke-width="2" opacity="1"/><text font-family="Helvetica, Arial, sans-serif" font-size="15" fill="#1e1e1e" text-anchor="middle"><tspan x="1060" y="326">frontend-lint</tspan><tspan x="1060" y="344.75">ESLint + Prettier</tspan></text><polyline points="700,150 885,290" fill="none" stroke="#8b5cf6" stroke-width="2" marker-end="url(#ah_8b5cf6)"/><rect x="1266.6666666666665" y="384.44444444444446" width="540" height="350" rx="10" fill="#d3f9d8" stroke="#22c55e" stroke-width="1" opacity="0.3"/><text font-family="Helvetica, Arial, sans-serif" font-size="16" fill="#15803d" text-anchor="start"><tspan x="635" y="458">Workflow: Docker Build &amp; Push (deploy.yml)</tspan></text><text font-family="Helvetica, Arial, sans-serif" font-size="14" fill="#15803d" text-anchor="start"><tspan x="635" y="482">trigger: workflow_run after Java CI success (main only)</tspan></text><rect x="697.7777777777778" y="813.2222222222222" width="250" height="90" rx="10" fill="#d0bfff" stroke="#8b5cf6" stroke-width="2" opacity="1"/><text font-family="Helvetica, Arial, sans-serif" font-size="15" fill="#1e1e1e" text-anchor="middle"><tspan x="785" y="571">build-and-push</tspan><tspan x="785" y="589.75">Docker image -&gt; ghcr.io</tspan></text><polyline points="846.1341325688472,812.2222222222222 950,575" fill="none" stroke="#1e1e1e" stroke-width="2" marker-end="url(#ah_1e1e1e)"/><rect x="950" y="535" width="180" height="80" rx="10" fill="#b2f2bb" stroke="#15803d" stroke-width="2" opacity="1"/><text font-family="Helvetica, Arial, sans-serif" font-size="15" fill="#2f9e44" text-anchor="middle"><tspan x="961.1111111111111" y="472.1111111111112">Trigger Render</tspan><tspan x="961.1111111111111" y="490.8611111111112">deploy (API)</tspan></text><polyline points="500,470 710.8812085383963,812.2222222222222" fill="none" stroke="#ef4444" stroke-width="2" stroke-dasharray="8 6" marker-end="url(#ah_ef4444)"/><text font-family="Helvetica, Arial, sans-serif" font-size="14" fill="#ef4444" text-anchor="middle"><tspan x="1079.4444444444446" y="913.111111111111">workflow_run: Java CI success</tspan></text><text font-family="Helvetica, Arial, sans-serif" font-size="14" fill="#757575" text-anchor="start"><tspan x="40" y="819">Note: frontend-e2e &amp; allure-report skipped for dependabot[bot]. build uploads app-jar (main); deploy.yml downloads it.</tspan></text></svg>